<?xml version="1.0" encoding="UTF-8"?>
<svg id="Layer_2" data-name="Layer 2" xmlns="http://www.w3.org/2000/svg" viewBox="0 0 1337.91 301.99">
  <defs>
    <style>
      .cls-1 {
        fill: #73420d;
        stroke-width: 0px;
      }
    </style>
  </defs>
  <g id="Layer_1-2" data-name="Layer 1">
    <g>
      <g>
        <path class="cls-1" d="M27.84,300.94v-28.99h7.26v28.99h-7.26Z"/>
        <path class="cls-1" d="M73.6,300.94l-7.47-9.91c-3.82-5.08-6.3-8.69-8.04-11.47.17,2.65.17,3.3.22,12.65v8.74h-7.04v-28.99h8.69l7.04,9.26c2.74,3.61,6.78,9.26,8.56,12.04-.13-1.65-.22-5.47-.22-12.43v-8.87h7.04v28.99h-8.78Z"/>
        <path class="cls-1" d="M118.76,271.96v18.82c0,3.96-.96,6.56-3.13,8.47-2,1.78-4.87,2.69-8.39,2.69-3.74,0-6.56-1-8.56-3.08-1.87-1.87-2.61-4.22-2.61-8.04v-1.56h6.95v1.48c0,3.52,1.52,5.43,4.35,5.43s4.13-1.78,4.13-5.39v-18.82h7.26Z"/>
        <path class="cls-1" d="M164.96,271.96v17.04c0,5.13-1.26,8-4.48,10.21-2.56,1.78-6.26,2.74-10.56,2.74-4.78,0-8.82-1.22-11.39-3.39-2.61-2.17-3.61-4.91-3.61-9.56v-17.04h7.26v16.9c0,2.69.3,4.04,1.09,5.04,1.13,1.39,3.65,2.26,6.69,2.26s5.56-.87,6.65-2.26c.78-1,1.09-2.35,1.09-5.04v-16.9h7.26Z"/>
        <path class="cls-1" d="M188.39,300.94h-7.26v-28.99h18.9c3.35,0,5.21.39,6.91,1.43,2.17,1.35,3.52,3.82,3.52,6.52,0,3.43-1.74,6-5.04,7.34,2.87,1.04,3.74,2.65,3.82,7.17.13,3.61.35,4.65,1.22,6.52h-8c-.52-1.61-.61-2.26-.56-5.04.04-4.22-1.09-5.48-4.87-5.52h-8.65v10.56ZM198.04,284.52c1.61,0,2.26-.09,2.91-.43,1-.52,1.69-1.69,1.69-2.91s-.7-2.39-1.69-2.91c-.65-.35-1.3-.43-2.91-.43h-9.65v6.69h9.65Z"/>
        <path class="cls-1" d="M233.98,300.94v-12.21l-12.86-16.77h9l7.6,10.47,7.65-10.47h9l-13.12,16.77v12.21h-7.26Z"/>
        <path class="cls-1" d="M296.74,300.94h-7.26v-28.99h18.9c3.35,0,5.21.39,6.91,1.43,2.17,1.35,3.52,3.82,3.52,6.52,0,3.43-1.74,6-5.04,7.34,2.87,1.04,3.74,2.65,3.82,7.17.13,3.61.35,4.65,1.22,6.52h-8c-.52-1.61-.61-2.26-.56-5.04.04-4.22-1.09-5.48-4.87-5.52h-8.65v10.56ZM306.39,284.52c1.61,0,2.26-.09,2.91-.43,1-.52,1.69-1.69,1.69-2.91s-.7-2.39-1.69-2.91c-.65-.35-1.3-.43-2.91-.43h-9.65v6.69h9.65Z"/>
        <path class="cls-1" d="M334.6,300.94v-28.99h26.51v5.87h-19.25v4.91h17.04v5.87h-17.04v6.48h19.25v5.87h-26.51Z"/>
        <path class="cls-1" d="M383.19,288.91v12.04h-7.26v-28.99h7.26v11.08h14.91v-11.08h7.26v28.99h-7.26v-12.04h-14.91Z"/>
        <path class="cls-1" d="M429.3,294.69l-2.69,6.26h-8.04l13.78-28.99h7.13l13.73,28.99h-8.13l-2.91-6.26h-12.86ZM437.3,284.3c-.83-1.78-1.22-2.7-1.78-4.04-.56,1.39-.7,1.74-1.69,4.13l-1.91,4.43h7.56l-2.17-4.52Z"/>
        <path class="cls-1" d="M466.38,271.96h17.25c4.95,0,5.91.09,7.6.78,2.35.91,3.91,3.52,3.91,6.48,0,2.65-1.17,4.61-3.74,6.21,3.35,1.43,5.08,3.96,5.08,7.26,0,3.13-1.74,5.95-4.39,7.13-2,.91-3.74,1.13-8.26,1.13h-17.47v-28.99ZM483.46,283.43c2.78,0,3.87-.78,3.87-2.87s-1.09-2.87-3.87-2.87h-9.82v5.74h9.82ZM483.46,295.21c2.04,0,2.82-.13,3.65-.52.96-.43,1.56-1.52,1.56-2.83s-.61-2.35-1.56-2.78c-.83-.43-1.61-.52-3.65-.52h-9.82v6.65h9.82Z"/>
        <path class="cls-1" d="M511.36,300.94v-28.99h7.26v28.99h-7.26Z"/>
        <path class="cls-1" d="M534.79,300.94v-28.99h7.26v23.12h15.12v5.87h-22.38Z"/>
        <path class="cls-1" d="M570.86,300.94v-28.99h7.26v28.99h-7.26Z"/>
        <path class="cls-1" d="M608.8,300.94h-7.26v-23.12h-10.04v-5.87h27.29v5.87h-10v23.12Z"/>
        <path class="cls-1" d="M636.27,294.69l-2.69,6.26h-8.04l13.78-28.99h7.13l13.73,28.99h-8.13l-2.91-6.26h-12.86ZM644.27,284.3c-.83-1.78-1.22-2.7-1.78-4.04-.56,1.39-.7,1.74-1.69,4.13l-1.91,4.43h7.56l-2.17-4.52Z"/>
        <path class="cls-1" d="M684.12,300.94h-7.26v-23.12h-10.04v-5.87h27.29v5.87h-10v23.12Z"/>
        <path class="cls-1" d="M707.51,300.94v-28.99h7.26v28.99h-7.26Z"/>
        <path class="cls-1" d="M765.13,286.65c0,4-1.96,8.21-5.13,10.95-3.17,2.78-7.73,4.35-12.6,4.35-10.13,0-17.73-6.65-17.73-15.51s7.6-15.47,17.69-15.47,17.77,6.56,17.77,15.69ZM737.63,286.43c0,5.56,4.26,9.87,9.78,9.87s9.78-4.3,9.78-9.73-4.21-9.95-9.82-9.95-9.73,4.3-9.73,9.82Z"/>
        <path class="cls-1" d="M802.38,300.94l-7.47-9.91c-3.82-5.08-6.3-8.69-8.04-11.47.17,2.65.17,3.3.22,12.65v8.74h-7.04v-28.99h8.69l7.04,9.26c2.74,3.61,6.78,9.26,8.56,12.04-.13-1.65-.22-5.47-.22-12.43v-8.87h7.04v28.99h-8.78Z"/>
        <path class="cls-1" d="M883.18,289.6c-2.09,8.3-7.74,12.39-17.08,12.39-5.3,0-9.47-1.3-12.52-3.95-3.22-2.74-4.91-6.69-4.91-11.3,0-9.56,6.95-15.78,17.6-15.78,5.08,0,9.08,1.35,12.21,4.17,2.3,2.04,3.61,4.13,4.26,6.95h-7.82c-1.48-3.65-4.35-5.48-8.65-5.48-5.82,0-9.91,4.13-9.91,10s4,9.73,9.73,9.73c4.65,0,7.39-2.04,9.08-6.74h8Z"/>
        <path class="cls-1" d="M931.73,286.65c0,4-1.96,8.21-5.13,10.95-3.17,2.78-7.74,4.35-12.6,4.35-10.12,0-17.73-6.65-17.73-15.51s7.61-15.47,17.69-15.47,17.77,6.56,17.77,15.69ZM904.22,286.43c0,5.56,4.26,9.87,9.78,9.87s9.78-4.3,9.78-9.73-4.22-9.95-9.82-9.95-9.73,4.3-9.73,9.82Z"/>
        <path class="cls-1" d="M968.97,300.94l-7.47-9.91c-3.82-5.08-6.3-8.69-8.04-11.47.17,2.65.17,3.3.22,12.65v8.74h-7.04v-28.99h8.69l7.04,9.26c2.74,3.61,6.78,9.26,8.56,12.04-.13-1.65-.22-5.47-.22-12.43v-8.87h7.04v28.99h-8.78Z"/>
        <path class="cls-1" d="M1015.35,280.61c-.52-1.74-1.13-2.61-2.43-3.3-1.35-.7-2.96-1-5.08-1-4.3,0-6.87,1.3-6.87,3.48,0,1.65,1.13,2.39,4.21,2.69l7.04.74c3.74.35,5.74.83,7.69,1.83,2.65,1.3,4.3,4,4.3,7.04,0,3.39-2,6.43-5.26,8-2.78,1.35-6.04,1.91-10.73,1.91-5.91,0-10.08-1.13-12.73-3.43-2.04-1.74-2.78-3.65-3.04-7.47h7.61c.22,1.91.74,2.91,1.91,3.82,1.61,1.22,3.61,1.74,6.61,1.74,4.74,0,7.47-1.39,7.47-3.78,0-1.91-1.43-2.87-4.82-3.22l-8.17-.83c-6.34-.65-9.78-3.52-9.78-8.13,0-6.04,5.56-9.73,14.6-9.73,4.56,0,8.69,1.04,11.3,2.82,2.26,1.56,3.26,3.39,3.82,6.82h-7.65Z"/>
        <path class="cls-1" d="M1068.94,271.96v17.04c0,5.13-1.26,8-4.48,10.21-2.56,1.78-6.26,2.74-10.56,2.74-4.78,0-8.82-1.22-11.38-3.39-2.61-2.17-3.61-4.91-3.61-9.56v-17.04h7.26v16.9c0,2.69.3,4.04,1.09,5.04,1.13,1.39,3.65,2.26,6.69,2.26s5.56-.87,6.65-2.26c.78-1,1.09-2.35,1.09-5.04v-16.9h7.26Z"/>
        <path class="cls-1" d="M1085.11,300.94v-28.99h7.26v23.12h15.12v5.87h-22.38Z"/>
        <path class="cls-1" d="M1131.92,300.94h-7.26v-23.12h-10.04v-5.87h27.29v5.87h-9.99v23.12Z"/>
        <path class="cls-1" d="M1159.39,294.69l-2.69,6.26h-8.04l13.78-28.99h7.13l13.73,28.99h-8.13l-2.91-6.26h-12.86ZM1167.38,284.3c-.83-1.78-1.22-2.7-1.78-4.04-.57,1.39-.7,1.74-1.7,4.13l-1.91,4.43h7.56l-2.17-4.52Z"/>
        <path class="cls-1" d="M1218.41,300.94l-7.47-9.91c-3.82-5.08-6.3-8.69-8.04-11.47.17,2.65.17,3.3.22,12.65v8.74h-7.04v-28.99h8.69l7.04,9.26c2.74,3.61,6.78,9.26,8.56,12.04-.13-1.65-.22-5.47-.22-12.43v-8.87h7.04v28.99h-8.78Z"/>
        <path class="cls-1" d="M1257.87,300.94h-7.26v-23.12h-10.04v-5.87h27.29v5.87h-9.99v23.12Z"/>
        <path class="cls-1" d="M1302.68,280.61c-.52-1.74-1.13-2.61-2.43-3.3-1.35-.7-2.96-1-5.08-1-4.3,0-6.87,1.3-6.87,3.48,0,1.65,1.13,2.39,4.21,2.69l7.04.74c3.74.35,5.74.83,7.69,1.83,2.65,1.3,4.3,4,4.3,7.04,0,3.39-2,6.43-5.26,8-2.78,1.35-6.04,1.91-10.73,1.91-5.91,0-10.08-1.13-12.73-3.43-2.04-1.74-2.78-3.65-3.04-7.47h7.61c.22,1.91.74,2.91,1.91,3.82,1.61,1.22,3.61,1.74,6.61,1.74,4.74,0,7.47-1.39,7.47-3.78,0-1.91-1.43-2.87-4.82-3.22l-8.17-.83c-6.34-.65-9.78-3.52-9.78-8.13,0-6.04,5.56-9.73,14.6-9.73,4.56,0,8.69,1.04,11.3,2.82,2.26,1.56,3.26,3.39,3.82,6.82h-7.65Z"/>
      </g>
      <g>
        <g>
          <path class="cls-1" d="M802.07.02h-80.94c-7.31,0-13.84,2.14-19.37,6.36-2.21,1.69-4.19,3.67-6.13,5.59l-1.06,1.08c-3.63,3.58-7.22,7.19-10.96,10.96l-4.17,4.17c-.31-.49-.59-.95-.99-1.35l-.47-.47c-3.77-3.81-7.67-7.76-11.59-11.57-2.97-2.89-6.54-2.88-9.56.02-1.26,1.2-2.46,2.44-3.68,3.7l-9.4,9.6-5.41-5.41c-4.28-4.3-8.46-8.48-12.63-12.71-6.54-6.61-14.5-9.96-23.65-9.96l-24.08-.02h-54.2c-.61,0-1.17,0-1.65-.02-2.32-.02-3.49-.04-4.22.7-.74.75-.7,1.99-.65,4.47.02.5.04,1.08.05,1.73.09,5.57,4.65,10.05,10.37,10.19,1.01.02,2.03.02,3.06,0h.83c1.22,7.42,5.91,10.73,14.36,10.12,1.58,7.24,5.18,10.08,12.67,10.08h8.34c5.77,0,11.54,0,17.31-.02,3.83.02,6.9,1.31,9.6,4.06,2.32,2.39,5.41,5.52,8.61,8.63,8.32,8.07,20.88,8.11,29.22.07,2.35-2.26,4.58-4.53,6.27-6.27,1.4-1.44,2.79-2.89,4.21-4.4l1.46-1.53c3.63,4.3,7.51,6.04,12.09,5.41-.02.74-.02,1.44-.04,2.14-.04,2.14-.07,4.13.07,6.16.32,4.73-1.29,8.57-4.92,11.79-1.91,1.67-3.67,3.54-5.37,5.34-2.59,2.73-2.61,6.47-.07,9.08,3.85,3.94,7.82,7.87,11.66,11.68l3.52,3.49c.22.2.47.31.74.43.11.05.25.11.4.18l.43.23,5.03-5.09c3.49-3.49,6.96-6.99,10.41-10.5,3.04-3.07,3.04-6.78-.02-9.9-.72-.72-1.46-1.42-2.21-2.12-1.42-1.35-2.89-2.73-4.08-4.28-1.38-1.8-3.02-4.13-3.31-6.36-.38-2.95-.31-5.93-.22-9.08.02-1.06.05-2.12.05-3.2,5.48.84,9.17-2.17,11.83-5.18l.11.11c.38.36.74.66,1.06,1.01,1.17,1.15,2.34,2.32,3.49,3.5,2.34,2.34,4.74,4.76,7.17,7.1,8.86,8.5,21.57,8.28,30.19-.52,1.24-1.26,2.48-2.5,3.72-3.74,1.37-1.37,2.73-2.73,4.08-4.1,2.77-2.86,6.11-4.13,10.21-4.17,6.43.07,12.98.05,19.28.04l6.96-.02c.7,0,1.46,0,2.19-.13,5.32-.97,8.45-4.31,9.31-9.96h3.45c5.57-.07,9.76-3.63,10.68-9.04.14-.95.34-1.04,1.38-1.1.41-.02.83-.04,1.26-.05,1.85-.07,3.76-.14,5.45-.84,4.67-1.92,6.81-5.86,6.51-12.04-.18-3.52-.47-4.1-3.99-4.1ZM634.99,36.65c-3,3.09-5.84,6.02-8.9,8.81-5.34,4.87-13.39,4.64-18.69-.58-2.05-1.99-4.06-4.03-6.07-6.04l-2.68-2.7c-3.94-3.94-8.73-5.95-14.25-5.95h-.13c-8.91.05-17.83.04-26.74.02-2.53,0-3.68-.79-4.22-3.02h11.5c8.03.02,16.07.02,24.1-.04,5.61-.02,10.05,1.83,13.71,5.73,1.19,1.26,2.39,2.46,3.65,3.74l2.25,2.25,4.76-5.05-.4-.45c-5.63-6.54-12.49-13.5-23.96-13.32-10.77.2-21.71.16-32.3.11-4.42-.02-8.82-.04-13.25-.04-2.84,0-4.01-.75-4.39-3.04l17.2.02c12.78.02,25.99.02,38.96-.05,7.19,0,12.92,2.32,17.52,7.21.99,1.04,1.99,2.08,3.06,3.2l2.07,2.14,4.65-5.19-.36-.45c-7.82-9.7-16.52-14.16-27.34-14-15.67.22-31.59.16-47.01.13-6.22-.04-12.44-.05-18.65-.05-2.91,0-4.03-.66-4.49-2.86.02,0,.04-.02.05-.02.5-.05,1.01-.09,1.51-.09h22.9c16.77.02,34.13.04,51.18-.05,8.66-.04,15.67,2.89,21.4,8.95,3.9,4.13,8.03,8.2,12.02,12.15,1.64,1.62,3.27,3.23,4.91,4.87-1.22,1.22-2.41,2.44-3.59,3.67ZM671.61,72.58c.16.22.18,1.1.05,1.31-2.61,2.75-5.23,5.37-8.02,8.18l-1.98,1.98-2.46-2.46c-2.48-2.5-4.89-4.89-7.3-7.28-.47-.45-.7-.81-.7-1.1,0-.22.14-.49.43-.77,2.43-2.43,4.85-4.87,7.35-7.4l2.68-2.7,1.99,2.03c2.77,2.8,5.37,5.45,7.94,8.21ZM674.02,33.56c-1.24,1.49-2.3,2.77-3.99,2.57-1.35-.14-2.68-.84-4.08-1.58-.63-.34-1.28-.68-1.94-.99-.34-.29-.7-.5-1.04-.63-.29-.13-.58-.2-.88-.23-.61-.05-1.24.09-1.78.41-.11.04-.2.09-.29.13-.57.32-1.15.68-1.71,1.04-1.11.72-2.17,1.38-3.29,1.67-.93.23-2.35-.04-4.08-.79-.66-.29-1.24-.86-1.92-1.55-.16-.18-.34-.34-.52-.52l3.47-3.43c3-2.98,5.93-5.88,8.84-8.77.43-.45.7-.47.88-.43.27.04.59.25.99.65,2.82,2.84,5.66,5.68,8.54,8.55l3.31,3.29c-.16.2-.34.4-.5.61ZM795.78,9.96c-.45.07-.9.09-1.37.09h-19.3c-15.29.04-31.09.05-46.64-.05-9.56,0-17.25,3.13-23.42,9.74-.88.95-1.94,1.8-2.97,2.62-.49.38-.97.77-1.46,1.19l-.49.52,5.57,5.77.49-.56c.49-.58.97-1.13,1.46-1.67.99-1.17,1.96-2.28,2.98-3.38,4.49-4.8,9.99-7.13,16.77-7.13h.09c13.23.04,26.45.02,39.7.02l17.02-.02c-.16,1.67-1.11,2.71-2.73,2.97-.56.07-1.11.09-1.73.07h-.38c-4.19,0-8.36,0-12.53.02-10.53.02-21.42.04-32.13-.05h-.32c-7.67,0-13.95,2.64-19.12,8.09-1.08,1.13-2.28,2.17-3.54,3.27-.61.54-1.26,1.1-1.91,1.67l-.56.5,5.61,5.01.45-.45c.43-.43.9-.86,1.35-1.31,1.02-.97,2.08-1.99,3.07-3.11,4.06-4.62,9.29-6.81,15.98-6.65,7.62.16,15.37.13,22.86.09,3.22,0,6.42-.02,9.63-.02h1.69c-.27,2.05-1.56,3-3.99,3.02-2.05,0-4.1.02-6.15.04-6.38.04-12.99.07-19.48-.07-6.72-.16-12.2,2.1-16.66,6.92-2.21,2.37-4.58,4.67-6.87,6.92l-.75.72c-5.79,5.64-14.13,5.57-19.82-.16-2.7-2.71-5.43-5.41-8.27-8.23l-3.56-3.52c.59-.56,1.2-1.11,1.8-1.67,1.65-1.53,3.27-3.04,4.83-4.56,3.49-3.41,7.51-7.37,11.45-11.41,5.23-5.37,11.65-8.11,19.07-8.11,25.29-.02,50.55,0,75.82,0,.45,0,.88.07,1.37.13.04,0,.05,0,.09.02-.43,1.64-1.37,2.5-3.02,2.75Z"/>
          <path class="cls-1" d="M643.41,196.36h36.45c.7-.72,1.4-1.89,2.08-2.59,5.72-5.95,5.88-14.86.36-20.72-3.61-3.85-7.44-7.6-11.14-11.23l-2.79-2.73-1.2-1.29c3.52-3.25,12.56-11.79,14.23-15.22,3.22-3.25,4.91-7.08,4.89-11.11-.02-4.13-1.83-8.11-5.25-11.48-3.4-3.34-6.78-6.69-10.21-10.08l-4.22-4.19.25-.27c.36-.38.65-.68.95-.99l7.55-7.55c4.26-4.26,8.52-8.5,12.76-12.78,7.4-7.42,7.55-18.22.32-25.7-1.22-1.24-1.76-2.52-1.83-4.22-.2-4.37-2.23-6.7-6.6-7.62-1.28-.25-2.66-.43-4.47-.52-2.08-.14-3.63.92-4.26,2.82-.97,2.89-.58,5.97,1.08,8.46,1.71,2.55,4.51,4.15,7.67,4.39.99.07,2.16.58,2.84,1.24,2.43,2.32,3.74,5.09,3.77,8,.04,2.95-1.22,5.79-3.65,8.23-5.23,5.25-10.46,10.48-15.71,15.71l-4.6,4.62c-.34.32-.68.65-1.04.97-2.14-2.14-4.28-4.26-6.42-6.36-5.41-5.36-10.53-10.42-15.65-15.71-2.12-2.19-3.18-5.09-2.97-8.11.22-3.09,1.78-5.98,4.26-7.91.49-.36,1.28-.63,2.07-.7,6.13-.5,8.16-2.41,9.02-8.5.43-3.15.2-4.87-.83-5.93-1.01-1.06-2.7-1.37-5.79-1.04-.52.05-1.06.13-1.58.22-4.71.86-6.74,3.13-7.24,8.05-.14,1.33-.77,2.8-1.56,3.65-7.26,7.66-7.26,18.24-.04,25.74,2.3,2.39,4.69,4.76,7.01,7.04l2.07,2.05c3.11,3.09,6.24,6.16,9.4,9.29l3.23,3.2-.2.22c-.38.41-.7.75-1.04,1.1l-4.69,4.69c-3.04,3.02-6.06,6.04-9.06,9.08-5.18,5.25-6.22,12.58-2.61,18.24,1.49,2.34,3.47,4.39,5.39,6.36.86.9,1.73,1.78,2.55,2.71.07.07,6.4,6.76,9.08,9.49l-2.05,2.05-.43.52.02.02-1.74,1.82c-3.4,3.52-6.79,7.06-10.23,10.55-6.2,6.34-6.24,15.47-.07,21.73l1.85,2.32ZM672.58,190.61h-21.89c-1.49,0-2.75-.41-3.74-1.19-.99-.77-1.74-1.92-2.17-3.4h33.72c-.86,2.89-3.04,4.58-5.91,4.58ZM672.26,175.82c3.24,0,5.19,1.4,6.25,4.55h-33.75c1.1-3.15,3.06-4.55,6.29-4.55h21.21ZM669.01,170.41h-14.56l7.42-7.15,7.13,7.15ZM661.64,151.8l-7.1-7.66h1.99c4.01,0,8.16,0,12.33.02.13,0,.27,0,.4.02l-7.62,7.62ZM672.49,138.86h-3.2c-6.36,0-12.74-.02-19.1-.04-2.5,0-4.73-1.94-5.37-4.55h33.68c-.95,3.04-2.97,4.58-6,4.58ZM673.14,124.06c2.5.02,4.73,1.99,5.32,4.65h-33.64c.63-2.73,2.88-4.65,5.55-4.65h22.77ZM668.97,118.58h-14.72l7.57-7.3,7.15,7.3Z"/>
        </g>
        <path class="cls-1" d="M110.23,1.92h-31.02S0,194.65,0,194.65h25s10.6-26.18,10.6-26.18l-.12-.05,12.8-32.8h-.09s4.13-10.33,4.13-10.33L94.56,19.69l46.09,115.93h-63.66s-7.07,18.07-7.07,18.07h77.36s16.26,40.96,16.26,40.96h24.4S110.23,1.92,110.23,1.92Z"/>
        <path class="cls-1" d="M290.05,130.21h23.19c.6,28.01,15.96,45.47,62.34,45.47,44.57,0,56.31-17.16,56.62-34.33.9-52.7-135.82-16.26-135.82-87.03,0-35.84,25.6-54.21,76.49-54.21,50.29,0,79.5,18.97,79.81,62.94h-22.89c-1.51-33.13-22.59-43.06-57.82-43.06-33.43,0-52.7,9.34-52.7,32.52,0,53.3,136.12,16.26,136.12,86.73,0,26.5-17.47,57.22-79.2,57.22-63.54,0-86.13-24.69-86.13-66.25Z"/>
        <path class="cls-1" d="M944.03,116.05h14.47c37.34,0,76.47-6.01,76.47-55.7,0-25.01-7.22-58.43-78.59-58.43h-67.16v19.26h67.76c48.79,0,54.22,21.4,54.22,39.17s-4.52,37.93-52.71,37.93h-45.78v-51.63h-23.49v148.01h23.49v-81.3l91.84,81.3h34.65l-95.17-78.61Z"/>
        <path class="cls-1" d="M1260.22,1.78h-31.02s-79.21,192.73-79.21,192.73h25s10.6-26.18,10.6-26.18l-.12-.05,12.8-32.8h-.09s4.13-10.33,4.13-10.33l42.24-105.6,46.09,115.93h-63.66s-7.07,18.07-7.07,18.07h77.36s16.26,40.96,16.26,40.96h24.4S1260.22,1.78,1260.22,1.78Z"/>
      </g>
    </g>
  </g>
</svg>